<svg id="Layer_1" data-name="Layer 1" xmlns="http://www.w3.org/2000/svg" viewBox="0 0 75 67.5"><defs></defs><title>Artboard 1</title><circle class="cls-1" cx="33.7" cy="18.7" r="3.7"/><path class="cls-1" d="M51.2,15A22.54,22.54,0,0,0,30,0H22.5A15.06,15.06,0,0,0,8.8,8.8,15.06,15.06,0,0,0,0,22.5v30H7.5v15H45V44.9h7.5A22.53,22.53,0,0,0,75,22.4V14.9H51.2Zm1.3,22.4H45a7.55,7.55,0,0,0-7.5,7.5v15H15V52.4a15,15,0,0,0,15-15V29.9a3.75,3.75,0,1,0-7.5.1v7.5A7.55,7.55,0,0,1,15,45H7.5V22.5A7.55,7.55,0,0,1,15,15a7.55,7.55,0,0,1,7.5-7.5H30a15,15,0,0,1,15,15H67.5A15,15,0,0,1,52.5,37.4Z"/></svg>
