<?xml version="1.0" encoding="utf-8"?>
<!-- Generator: Adobe Illustrator 21.1.0, SVG Export Plug-In . SVG Version: 6.00 Build 0)  -->
<svg version="1.1" id="Layer_1" xmlns="http://www.w3.org/2000/svg" xmlns:xlink="http://www.w3.org/1999/xlink" x="0px" y="0px"
	 viewBox="0 0 192 192" style="enable-background:new 0 0 192 192;" xml:space="preserve">
<style type="text/css">
	.st0{fill:#005293;}
	.st1{fill:#FFFFFF;}
</style>
<g>
	<rect class="st0" width="192" height="192"/>
</g>
<g>
	<circle class="st1" cx="89.4" cy="69.8" r="6.5"/>
	<path class="st1" d="M119.9,63.3c-5.6-15.7-20.4-26.1-37-26.2H69.8c-10.3,0-19.6,6-23.9,15.3c-9.3,4.3-15.3,13.6-15.3,23.9v52.3
		h13.1v26.2h65.4v-39.4h13.1c21.7,0,39.2-17.6,39.2-39.2V63.1h-41.5V63.3z M122.2,102.4h-13.1c-7.2,0-13,5.9-13.1,13.1v26.2H56.8
		v-13.1c14.4,0,26.2-11.7,26.2-26.2V89.3c0-3.6-3-6.5-6.6-6.5c-3.6,0-6.5,3-6.5,6.6v13.1c0,7.2-5.9,13-13.1,13.1H43.7V76.4
		c0-7.2,5.9-13,13.1-13.1c0-7.2,5.9-13,13.1-13.1h13.1c14.4,0,26.2,11.7,26.2,26.2h39.2C148.2,90.8,136.5,102.4,122.2,102.4z"/>
</g>
</svg>
